<mxfile host="app.diagrams.net" modified="2024-06-02T22:41:58.684Z" agent="Mozilla/5.0 (Windows NT 10.0; Win64; x64) AppleWebKit/537.36 (KHTML, like Gecko) Chrome/85.0.4183.102 Safari/537.36" version="24.4.13" etag="417ZrIdRsyLsPGOr_JIq" type="github">
  <diagram name="Page-1" id="C_a7mkfKu5KaP3ui04eH">
    <mxGraphModel>
      <root>
        <mxCell id="0" />
        <mxCell id="1" parent="0" />
      </root>
    </mxGraphModel>
  </diagram>
</mxfile>
